<?xml version="1.0" encoding="utf-8"?><svg xmlns="http://www.w3.org/2000/svg" xmlns:xlink="http://www.w3.org/1999/xlink"><symbol viewBox="0 0 9 6" id="arrow-down-9x6" xmlns="http://www.w3.org/2000/svg"><path d="M9 1.3L4.5 6 0 1.3 1.3 0l3.2 3.3L7.7 0 9 1.3z"/></symbol><symbol viewBox="0 0 6 9" id="arrow-left-6x9" xmlns="http://www.w3.org/2000/svg"><path d="M5.985 7.726l-1.33 1.288-3.327-3.22-1.331-1.288 1.331-1.288L4.655-.003l1.33 1.288-3.326 3.221 3.326 3.22z"/></symbol><symbol viewBox="0 0 8 13" id="arrow-left-8x13" xmlns="http://www.w3.org/2000/svg"><path d="M8 11.7L6.7 13 0 6.5 6.7 0 8 1.3 2.7 6.5 8 11.7z"/></symbol><symbol viewBox="0 0 4 8" id="arrow-light-left-4x8" xmlns="http://www.w3.org/2000/svg"><path d="M1.043 3.828a.26.26 0 0 0 0 .344l2.962 3.263-.522.575L.102 4.286a.434.434 0 0 1 0-.573L3.483-.01l.522.575-2.962 3.263z"/></symbol><symbol viewBox="0 0 6 9" id="arrow-right-6x9" xmlns="http://www.w3.org/2000/svg"><path d="M6.002 4.506l-1.33 1.288-3.327 3.22-1.33-1.288 3.326-3.22-3.326-3.22 1.33-1.289 3.327 3.221 1.33 1.288z"/></symbol><symbol viewBox="0 0 8 13" id="arrow-right-8x13" xmlns="http://www.w3.org/2000/svg"><path d="M5.3 6.5L0 1.3 1.3 0 8 6.5 1.3 13 0 11.7l5.3-5.2z"/></symbol><symbol viewBox="0 0 20 20" id="cart-20" xmlns="http://www.w3.org/2000/svg"><circle cx="7" cy="17" r="2"/><circle cx="15" cy="17" r="2"/><path d="M20 4.4V5l-1.8 6.3c-.1.4-.5.7-1 .7H6.7c-.4 0-.8-.3-1-.7L3.3 3.9c-.2-.6-.7-.9-1.2-.9H.4C.2 3 0 2.8 0 2.6V1.4c0-.2.2-.4.4-.4h2.5c1 0 1.8.6 2.1 1.6l.1.4 2.3 6.8c0 .1.2.2.3.2h8.6c.1 0 .3-.1.3-.2l1.3-4.4c0-.2-.2-.4-.4-.4H9.4c-.2 0-.4-.2-.4-.4V3.4c0-.2.2-.4.4-.4h9.2c.8 0 1.4.6 1.4 1.4z"/></symbol><symbol viewBox="0 0 16 16" id="compare-16" xmlns="http://www.w3.org/2000/svg"><path d="M9 15H7c-.6 0-1-.4-1-1V2c0-.6.4-1 1-1h2c.6 0 1 .4 1 1v12c0 .6-.4 1-1 1zM1 9h2c.6 0 1 .4 1 1v4c0 .6-.4 1-1 1H1c-.6 0-1-.4-1-1v-4c0-.6.4-1 1-1zM15 5h-2c-.6 0-1 .4-1 1v8c0 .6.4 1 1 1h2c.6 0 1-.4 1-1V6c0-.6-.4-1-1-1z"/></symbol><symbol viewBox="0 0 10 10" id="cross-10" xmlns="http://www.w3.org/2000/svg"><path d="M9.243 7.828L7.828 9.242 5 6.414 2.172 9.242.757 7.828 3.586 5 .757 2.171 2.172.757 5 3.585 7.828.757l1.415 1.414L6.414 5l2.829 2.828z"/></symbol><symbol viewBox="0 0 20 20" id="cross-20" xmlns="http://www.w3.org/2000/svg"><path d="M19.2 17.8l-1.4 1.4-7.8-7.8-7.8 7.8-1.4-1.4L8.6 10 .8 2.2 2.2.8 10 8.6 17.8.8l1.4 1.4-7.8 7.8 7.8 7.8z"/></symbol><symbol viewBox="0 0 14 14" id="grid-14" xmlns="http://www.w3.org/2000/svg"><path d="M13.2 14H8.8a.8.8 0 0 1-.8-.8V8.8a.8.8 0 0 1 .8-.8h4.4a.8.8 0 0 1 .8.8v4.4a.8.8 0 0 1-.8.8zm0-8H8.8a.8.8 0 0 1-.8-.8V.8a.8.8 0 0 1 .8-.8h4.4a.8.8 0 0 1 .8.8v4.4a.8.8 0 0 1-.8.8zm-8 8H.8a.8.8 0 0 1-.8-.8V8.8A.8.8 0 0 1 .8 8h4.4a.8.8 0 0 1 .8.8v4.4a.8.8 0 0 1-.8.8zm0-8H.8a.8.8 0 0 1-.8-.8V.8A.8.8 0 0 1 .8 0h4.4a.8.8 0 0 1 .8.8v4.4a.8.8 0 0 1-.8.8z"/></symbol><symbol viewBox="0 0 20 20" id="heart-20" xmlns="http://www.w3.org/2000/svg"><path d="M14 3c2.2 0 4 1.8 4 4 0 4-5.2 10-8 10S2 11 2 7c0-2.2 1.8-4 4-4 1 0 1.9.4 2.7 1L10 5.2 11.3 4c.8-.6 1.7-1 2.7-1m0-2c-1.5 0-2.9.6-4 1.5C8.9 1.6 7.5 1 6 1 2.7 1 0 3.7 0 7c0 5 6 12 10 12s10-7 10-12c0-3.3-2.7-6-6-6z"/></symbol><symbol viewBox="0 0 14 14" id="list-14" xmlns="http://www.w3.org/2000/svg"><path d="M13.2 14H.8a.8.8 0 0 1-.8-.8V8.8A.8.8 0 0 1 .8 8h12.4a.8.8 0 0 1 .8.8v4.4a.8.8 0 0 1-.8.8zm0-8H.8a.8.8 0 0 1-.8-.8V.8A.8.8 0 0 1 .8 0h12.4a.8.8 0 0 1 .8.8v4.4a.8.8 0 0 1-.8.8z"/></symbol><symbol viewBox="0 0 22 16" id="menu" xmlns="http://www.w3.org/2000/svg"><path d="M0 9V7h22v2H0zm0-9h22v2H0V0zm16 16H0v-2h16v2z"/></symbol><symbol viewBox="0 0 16 16" id="quickview-16" xmlns="http://www.w3.org/2000/svg"><path d="M14 15h-4v-2h3v-3h2v4c0 .6-.4 1-1 1zM13 3h-3V1h4c.6 0 1 .4 1 1v4h-2V3zM6 3H3v3H1V2c0-.6.4-1 1-1h4v2zM3 13h3v2H2c-.6 0-1-.4-1-1v-4h2v3z"/></symbol><symbol viewBox="0 0 20 20" id="search-20" xmlns="http://www.w3.org/2000/svg"><path d="M19.2 17.8s-.2.5-.5.8c-.4.4-.9.6-.9.6s-.9.7-2.8-1.6c-1.1-1.4-2.2-2.8-3.1-3.9-1 .8-2.4 1.3-3.9 1.3-3.9 0-7-3.1-7-7s3.1-7 7-7 7 3.1 7 7c0 1.5-.5 2.9-1.3 4 1.1.8 2.5 2 4 3.1 2.3 1.7 1.5 2.7 1.5 2.7zM8 3C5.2 3 3 5.2 3 8s2.2 5 5 5 5-2.2 5-5-2.2-5-5-5z"/></symbol><symbol viewBox="0 0 5 10" id="select-arrows-5x10" xmlns="http://www.w3.org/2000/svg"><path d="M4.503 4H.497c-.403 0-.639-.508-.408-.878L2.095.233a.469.469 0 0 1 .816 0l2 2.889c.231.37-.005.878-.408.878zM.497 6h4.006c.403 0 .639.504.408.871L2.905 9.737a.47.47 0 0 1-.816 0l-2-2.866C-.142 6.504.094 6 .497 6z"/></symbol><symbol viewBox="0 0 13 12" id="star-normal" xmlns="http://www.w3.org/2000/svg"><path d="M7 .3L9 4h3.5c.4.1.6.8.3 1.1L10 7.4l1 4c.1.4-.4.8-.8.6l-3.7-2-3.7 1.9c-.4.2-.9-.1-.8-.6l1-4L.2 5.1C-.2 4.8 0 4.1.5 4H4L6 .3c.2-.4.8-.4 1 0z"/></symbol><symbol viewBox="0 0 13 12" id="star-normal-stroke" xmlns="http://www.w3.org/2000/svg"><path d="M6.5 1.5l1.6 3 .3.5h3l-2 1.6-.5.4.1.6.7 3L7 9.1l-.5-.2-.5.2-2.8 1.5.7-3 .2-.6-.5-.4-2-1.6h3l.3-.5 1.6-3m0-1.5c-.2 0-.4.1-.5.3L4 4H.5c-.5.1-.7.8-.3 1.1L3 7.4l-1 4c-.1.3.2.6.5.6.1 0 .2 0 .3-.1L6.5 10l3.7 1.9c.1 0 .2.1.3.1.3 0 .6-.3.5-.6l-1-4 2.8-2.3c.3-.3.1-1-.3-1.1H9L7 .3C6.9.1 6.7 0 6.5 0z"/></symbol><symbol viewBox="0 0 16 16" id="wishlist-16" xmlns="http://www.w3.org/2000/svg"><path d="M13.9 8.4l-5.4 5.4c-.3.3-.7.3-1 0L2.1 8.4C.6 6.9.6 4.6 2.1 3.1 2.8 2.4 3.8 2 4.8 2s1.9.4 2.6 1.1l.6.6.6-.6c.7-.7 1.7-1.1 2.7-1.1 1 0 1.9.4 2.6 1.1 1.5 1.5 1.5 3.8 0 5.3z"/></symbol></svg>